<svg width="120" height="32" viewBox="0 0 120 32" fill="none" xmlns="http://www.w3.org/2000/svg">
<path d="M60.26 21H66.008V19.956H61.46V12.6H60.26V21ZM67.385 21H68.585V12.6H67.385V21ZM77.1238 12.6V18.864L72.0838 12.6H71.0998V21H72.2998V14.736L77.3398 21H78.3238V12.6H77.1238ZM86.7901 21H88.1941L84.3781 16.38L87.9661 12.6H86.5981L82.0381 17.292V12.6H80.8381V21H82.0381V18.828L83.5741 17.268L86.7901 21ZM90.6631 19.956V17.244H94.8751V16.224H90.6631V13.644H95.3911V12.6H89.4631V21H95.5591V19.956H90.6631ZM97.5022 21H101.042C103.742 21 105.578 19.296 105.578 16.8C105.578 14.304 103.742 12.6 101.042 12.6H97.5022V21ZM98.7022 19.956V13.644H100.97C103.046 13.644 104.378 14.916 104.378 16.8C104.378 18.684 103.046 19.956 100.97 19.956H98.7022ZM107.416 21H108.616V12.6H107.416V21ZM117.155 12.6V18.864L112.115 12.6H111.131V21H112.331V14.736L117.371 21H118.355V12.6H117.155Z" fill="white"/>
<rect x="2" y="2" width="28" height="28" rx="14" fill="#1275B1"/>
<path d="M12.6186 9.69215C12.6186 10.6267 11.8085 11.3843 10.8093 11.3843C9.81004 11.3843 9 10.6267 9 9.69215C9 8.7576 9.81004 8 10.8093 8C11.8085 8 12.6186 8.7576 12.6186 9.69215Z" fill="white"/>
<path d="M9.24742 12.6281H12.3402V22H9.24742V12.6281Z" fill="white"/>
<path d="M17.3196 12.6281H14.2268V22H17.3196C17.3196 22 17.3196 19.0496 17.3196 17.2049C17.3196 16.0976 17.6977 14.9855 19.2062 14.9855C20.911 14.9855 20.9008 16.4345 20.8928 17.5571C20.8824 19.0244 20.9072 20.5219 20.9072 22H24V17.0537C23.9738 13.8954 23.1508 12.4401 20.4433 12.4401C18.8354 12.4401 17.8387 13.1701 17.3196 13.8305V12.6281Z" fill="white"/>
</svg>
