<svg width="98" height="15" viewBox="0 0 98 15" fill="none" xmlns="http://www.w3.org/2000/svg">
<path d="M53.2 12L53.188 3.6H52.204L48.748 9.504L45.244 3.6H44.26V12H45.412V5.916L48.448 10.98H49L52.036 5.88L52.048 12H53.2ZM56.9209 10.956V8.244H61.1329V7.224H56.9209V4.644H61.6489V3.6H55.7209V12H61.8169V10.956H56.9209ZM63.76 12H67.3C70 12 71.836 10.296 71.836 7.8C71.836 5.304 70 3.6 67.3 3.6H63.76V12ZM64.96 10.956V4.644H67.228C69.304 4.644 70.636 5.916 70.636 7.8C70.636 9.684 69.304 10.956 67.228 10.956H64.96ZM73.6741 12H74.8741V3.6H73.6741V12ZM80.8689 12.096C83.0889 12.096 84.4209 10.812 84.4209 8.376V3.6H83.2569V8.328C83.2569 10.188 82.3929 11.028 80.8809 11.028C79.3689 11.028 78.5169 10.188 78.5169 8.328V3.6H77.3169V8.376C77.3169 10.812 78.6609 12.096 80.8689 12.096ZM95.8211 12L95.8091 3.6H94.8251L91.3691 9.504L87.8651 3.6H86.8811V12H88.0331V5.916L91.0691 10.98H91.6211L94.6571 5.88L94.6691 12H95.8211Z" fill="white"/>
<ellipse cx="4.93634" cy="7.69876" rx="4.93634" ry="4.69876" fill="white"/>
<ellipse cx="12.539" cy="7.69876" rx="2.45497" ry="4.38199" fill="white"/>
<ellipse cx="16.1024" cy="7.93628" rx="0.897516" ry="4.14441" fill="white"/>
</svg>
