<svg width="103" height="15" viewBox="0 0 103 15" fill="none" xmlns="http://www.w3.org/2000/svg">
<path d="M50.928 12H52.116V4.644H54.996V3.6H48.048V4.644H50.928V12ZM66.9372 3.6L64.6212 10.464L62.3052 3.6H61.2012L58.8372 10.428L56.5692 3.6H55.3332L58.1412 12H59.4252L61.7172 5.292L64.0092 12H65.2692L68.0772 3.6H66.9372ZM69.5452 12H70.7452V3.6H69.5452V12ZM74.928 12H76.116V4.644H78.996V3.6H72.048V4.644H74.928V12ZM82.0882 12H83.2762V4.644H86.1562V3.6H79.2082V4.644H82.0882V12ZM88.6631 10.956V8.244H92.8751V7.224H88.6631V4.644H93.3911V3.6H87.4631V12H93.5591V10.956H88.6631ZM102.426 12L100.434 9.18C101.61 8.76 102.282 7.824 102.282 6.528C102.282 4.704 100.962 3.6 98.7782 3.6H95.5022V12H96.7022V9.444H98.7782C98.9582 9.444 99.1382 9.432 99.3062 9.42L101.118 12H102.426ZM98.7422 8.424H96.7022V4.644H98.7422C100.278 4.644 101.082 5.328 101.082 6.528C101.082 7.728 100.278 8.424 98.7422 8.424Z" fill="white"/>
<path d="M5.64991 15C3.57026 15 1.63168 14.3864 0 13.3276C1.38535 13.4185 3.83019 13.2007 5.35087 11.7292C3.06326 11.6227 2.0316 9.8428 1.89703 9.08215C2.0914 9.15822 3.01841 9.24949 3.54172 9.03651C0.91022 8.36714 0.506525 6.02434 0.596235 5.30933C1.08964 5.65923 1.92694 5.78093 2.25587 5.75051C-0.196205 3.97059 0.685945 1.2931 1.11954 0.71501C2.87924 3.18826 5.51649 4.57733 8.7791 4.65459C8.71759 4.38089 8.6851 4.09593 8.6851 3.80325C8.6851 1.70277 10.3586 0 12.423 0C13.5016 0 14.4735 0.46484 15.1558 1.20837C15.8766 1.03703 16.9613 0.635914 17.4916 0.289047C17.2243 1.26268 16.3922 2.07488 15.8888 2.37592C15.8847 2.36563 15.893 2.38616 15.8888 2.37592C16.331 2.30807 17.5274 2.07481 18 1.74949C17.7663 2.29647 16.884 3.20591 16.16 3.71506C16.2947 9.74221 11.7492 15 5.64991 15Z" fill="white"/>
</svg>
